<svg xmlns="http://www.w3.org/2000/svg" version="1.1" xmlns:xlink="http://www.w3.org/1999/xlink" xmlns:svgjs="http://svgjs.dev/svgjs" width="1000" height="623" viewBox="0 0 1000 623"><g transform="matrix(1,0,0,1,-0.6060606060606233,0.2522267206477409)"><svg viewBox="0 0 396 247" data-background-color="#ffffff" preserveAspectRatio="xMidYMid meet" height="623" width="1000" xmlns="http://www.w3.org/2000/svg" xmlns:xlink="http://www.w3.org/1999/xlink"><g id="tight-bounds" transform="matrix(1,0,0,1,0.2400000000000091,-0.09999999999999432)"><svg viewBox="0 0 395.52 247.2" height="247.2" width="395.52"><g><svg></svg></g><g><svg viewBox="0 0 395.52 247.2" height="247.2" width="395.52"><g transform="matrix(1,0,0,1,76.71137408597934,47.215199999999996)"><svg viewBox="0 0 242.0972518280413 152.7696" height="152.7696" width="242.0972518280413"><g><svg viewBox="0 0 242.0972518280413 152.7696" height="152.7696" width="242.0972518280413"><g><svg viewBox="0 0 244.43135999999998 154.24248236068095" height="152.7696" width="242.0972518280413"><g><svg viewBox="0 0 244.43135999999998 154.24248236068095" height="154.24248236068095" width="244.43135999999998"><g id="textblocktransform"><svg viewBox="0 0 244.43135999999998 154.24248236068095" height="154.24248236068095" width="244.43135999999998" id="textblock"><g><svg viewBox="0 0 244.43135999999998 105.87389633001423" height="105.87389633001423" width="244.43135999999998"><g transform="matrix(1,0,0,1,0,0)"><svg width="244.43135999999998" viewBox="0.7179245352745056 -39.150001525878906 90.38207244873047 39.150001525878906" height="105.87389633001423" data-palette-color="#883d1a"><path d="M22.4 0L22.4 0Q21.65 0 21.1-0.55 20.55-1.1 20.55-1.95L20.55-1.95 20.55-9.35 2.65-9.35Q1.85-9.35 1.33-9.88 0.8-10.4 0.73-11.1 0.65-11.8 1.1-12.4L1.1-12.4 20.9-38.3Q21.15-38.65 21.53-38.88 21.9-39.1 22.5-39.1L22.5-39.1Q23.3-39.1 23.83-38.53 24.35-37.95 24.35-37.1L24.35-37.1 24.35-12.85 28.3-12.85Q29.1-12.85 29.65-12.45 30.2-12.05 30.2-11.05L30.2-11.05Q30.2-10.4 29.65-9.88 29.1-9.35 28.3-9.35L28.3-9.35 24.35-9.35 24.35-1.95Q24.35-1.1 23.8-0.55 23.25 0 22.4 0ZM21.55-33.25L4.75-11.35 4.05-12.85 20.55-12.85 20.55-34.3 21.55-33.25ZM46.6 0L46.6 0Q42.9 0 40.25-2.35 37.6-4.7 36.22-9.08 34.85-13.45 34.85-19.6L34.85-19.6Q34.85-25.65 36.22-30.05 37.6-34.45 40.25-36.8 42.9-39.15 46.6-39.15L46.6-39.15Q50.4-39.15 53.02-36.77 55.65-34.4 57.02-30 58.4-25.6 58.4-19.6L58.4-19.6Q58.4-13.5 57.02-9.13 55.65-4.75 53.02-2.38 50.4 0 46.6 0ZM46.6-3.9L46.6-3.9Q49.3-3.9 51.05-5.93 52.8-7.95 53.65-11.5 54.5-15.05 54.5-19.6L54.5-19.6Q54.5-24.1 53.62-27.63 52.75-31.15 51-33.2 49.25-35.25 46.6-35.25L46.6-35.25Q43.95-35.25 42.22-33.23 40.5-31.2 39.62-27.65 38.75-24.1 38.75-19.6L38.75-19.6Q38.75-15 39.62-11.48 40.5-7.95 42.22-5.93 43.95-3.9 46.6-3.9ZM83.3 0L83.3 0Q82.55 0 82-0.55 81.45-1.1 81.45-1.95L81.45-1.95 81.45-9.35 63.55-9.35Q62.75-9.35 62.22-9.88 61.7-10.4 61.62-11.1 61.55-11.8 62-12.4L62-12.4 81.8-38.3Q82.05-38.65 82.42-38.88 82.8-39.1 83.4-39.1L83.4-39.1Q84.2-39.1 84.72-38.53 85.25-37.95 85.25-37.1L85.25-37.1 85.25-12.85 89.2-12.85Q90-12.85 90.55-12.45 91.1-12.05 91.1-11.05L91.1-11.05Q91.1-10.4 90.55-9.88 90-9.35 89.2-9.35L89.2-9.35 85.25-9.35 85.25-1.95Q85.25-1.1 84.7-0.55 84.15 0 83.3 0ZM82.45-33.25L65.65-11.35 64.95-12.85 81.45-12.85 81.45-34.3 82.45-33.25Z" opacity="1" transform="matrix(1,0,0,1,0,0)" fill="#ffffff" class="wordmark-text-0" data-fill-palette-color="primary" id="text-0"></path></svg></g></svg></g><g transform="matrix(1,0,0,1,0,130.8681822800187)"><svg viewBox="0 0 244.43135999999998 23.374300080662277" height="23.374300080662277" width="244.43135999999998"><g transform="matrix(1,0,0,1,0,0)"><svg width="244.43135999999998" viewBox="3.049999952316284 -36 471.0500183105469 45.04999923706055" height="23.374300080662277" data-palette-color="#4d331f"><path d="M17.25-34.8Q21.5-34.8 24.7-32.95 27.9-31.1 29.68-27.63 31.45-24.15 31.45-19.4L31.45-19.4 31.45-14.9Q31.45-10.15 29.68-6.68 27.9-3.2 24.7-1.35 21.5 0.5 17.25 0.5L17.25 0.5Q13 0.5 9.8-1.35 6.6-3.2 4.83-6.68 3.05-10.15 3.05-14.9L3.05-14.9 3.05-19.4Q3.05-24.15 4.83-27.63 6.6-31.1 9.8-32.95 13-34.8 17.25-34.8L17.25-34.8ZM17.25-30.35Q12.85-30.35 10.4-27.55 7.95-24.75 7.95-19.4L7.95-19.4 7.95-14.9Q7.95-9.55 10.33-6.75 12.7-3.95 17.25-3.95L17.25-3.95Q21.65-3.95 24.1-6.73 26.55-9.5 26.55-14.9L26.55-14.9 26.55-19.4Q26.55-24.75 24.18-27.55 21.8-30.35 17.25-30.35L17.25-30.35ZM60-25.55L60-5Q60-4.1 60.4-3.68 60.8-3.25 61.4-3.25L61.4-3.25Q62.5-3.25 63.65-3.95L63.65-3.95 63.65-0.5Q62.1 0.5 60.5 0.5L60.5 0.5Q57.8 0.5 56.72-0.6 55.65-1.7 55.55-3.7L55.55-3.7Q54.2-1.7 52.07-0.6 49.95 0.5 47.2 0.5L47.2 0.5Q43.35 0.5 40.87-1.78 38.4-4.05 38.4-8.35L38.4-8.35 38.4-25.55 43.1-25.55 43.1-9.2Q43.1-3.25 48.5-3.25L48.5-3.25Q50.25-3.25 51.82-4.2 53.4-5.15 54.35-6.78 55.3-8.4 55.3-10.35L55.3-10.35 55.3-25.55 60-25.55ZM81.6-26.05Q86.45-26.05 89.2-22.5 91.95-18.95 91.95-12.75L91.95-12.75 91.95-12.2Q91.95-6.3 89.22-2.9 86.5 0.5 81.6 0.5L81.6 0.5Q76.9 0.5 74.25-3.25L74.25-3.25 74.25 9.05 69.55 9.05 69.55-25.55 73.05-25.55Q73.4-23.95 73.7-22.05L73.7-22.05Q76.55-26.05 81.6-26.05L81.6-26.05ZM80.75-22.3Q77.35-22.3 75.77-19.95 74.2-17.6 74.2-12.8L74.2-12.8Q74.2-7.9 75.82-5.58 77.45-3.25 80.75-3.25L80.75-3.25Q84.05-3.25 85.65-5.6 87.25-7.95 87.25-12.8L87.25-12.8Q87.25-17.7 85.62-20 84-22.3 80.75-22.3L80.75-22.3ZM108.44-26.05Q111.29-26.05 113.52-25.15 115.74-24.25 116.97-22.65 118.19-21.05 118.19-19.1L118.19-19.1 118.14-18.2 113.49-18.2 113.49-18.65Q113.49-22.3 107.84-22.3L107.84-22.3Q102.24-22.3 102.24-18.95L102.24-18.95Q102.24-17.4 103.84-16.68 105.44-15.95 108.74-15.3L108.74-15.3Q111.89-14.65 113.92-13.95 115.94-13.25 117.37-11.75 118.79-10.25 118.79-7.7L118.79-7.7Q118.79-3.6 115.99-1.55 113.19 0.5 107.94 0.5L107.94 0.5 107.19 0.5Q104.04 0.5 101.69-0.48 99.34-1.45 98.07-3.13 96.79-4.8 96.84-6.9L96.84-6.9 96.84-8 101.49-8 101.49-7.5Q101.49-3.25 108.64-3.25L108.64-3.25Q110.74-3.25 112.42-4.2 114.09-5.15 114.09-6.8L114.09-6.8Q114.09-8.2 113.17-9 112.24-9.8 110.89-10.2 109.54-10.6 107.14-11L107.14-11Q104.04-11.6 102.14-12.23 100.24-12.85 98.89-14.35 97.54-15.85 97.54-18.45L97.54-18.45Q97.54-22 100.34-24.03 103.14-26.05 107.99-26.05L107.99-26.05 108.44-26.05ZM124.69-5.55L129.74-5.55 129.74-1.3 127.99 6.2 125.39 6.2 126.74 0 124.69 0 124.69-5.55ZM154.99-33.7L154.99-25.55 160.94-25.55 160.94-21.8 154.99-21.8 154.99-6.55Q154.99-4.75 155.69-3.95 156.39-3.15 157.84-3.15L157.84-3.15Q159.14-3.15 160.94-3.9L160.94-3.9 160.94-0.4Q159.14 0.5 156.28 0.5L156.28 0.5Q153.34 0.5 151.81-1.25 150.28-3 150.28-6.8L150.28-6.8 150.28-21.8 147.49-21.8 147.49-25.55 150.44-25.55 152.03-33.7 154.99-33.7ZM188.13-25.55L188.13-5Q188.13-4.1 188.53-3.68 188.93-3.25 189.53-3.25L189.53-3.25Q190.63-3.25 191.78-3.95L191.78-3.95 191.78-0.5Q190.23 0.5 188.63 0.5L188.63 0.5Q185.93 0.5 184.86-0.6 183.78-1.7 183.68-3.7L183.68-3.7Q182.33-1.7 180.21-0.6 178.08 0.5 175.33 0.5L175.33 0.5Q171.48 0.5 169.01-1.78 166.53-4.05 166.53-8.35L166.53-8.35 166.53-25.55 171.23-25.55 171.23-9.2Q171.23-3.25 176.63-3.25L176.63-3.25Q178.38-3.25 179.96-4.2 181.53-5.15 182.48-6.78 183.43-8.4 183.43-10.35L183.43-10.35 183.43-25.55 188.13-25.55ZM215.38-33.7L215.38-25.55 221.33-25.55 221.33-21.8 215.38-21.8 215.38-6.55Q215.38-4.75 216.08-3.95 216.78-3.15 218.23-3.15L218.23-3.15Q219.53-3.15 221.33-3.9L221.33-3.9 221.33-0.4Q219.53 0.5 216.68 0.5L216.68 0.5Q213.73 0.5 212.2-1.25 210.68-3 210.68-6.8L210.68-6.8 210.68-21.8 207.88-21.8 207.88-25.55 210.83-25.55 212.43-33.7 215.38-33.7ZM226.23-34.3L230.33-34.3 230.33-26.95 229.23-20.35 227.28-20.35 226.23-26.95 226.23-34.3ZM247.92-26.05Q251.07-26.05 253.5-24.73 255.92-23.4 257.27-20.95 258.62-18.5 258.62-15.25L258.62-15.25 258.62-11.7 240.77-11.7Q240.87-7.65 242.67-5.45 244.47-3.25 248.02-3.25L248.02-3.25Q251.17-3.25 252.67-5.1 254.17-6.95 254.17-9.5L254.17-9.5 258.62-9.5Q258.62-6.5 257.25-4.25 255.87-2 253.45-0.75 251.02 0.5 247.92 0.5L247.92 0.5 247.72 0.5Q242.32 0.5 239.2-2.98 236.07-6.45 236.07-12.25L236.07-12.25 236.07-13.25Q236.07-17.05 237.47-19.95 238.87-22.85 241.47-24.45 244.07-26.05 247.57-26.05L247.57-26.05 247.92-26.05ZM247.67-22.3Q244.82-22.3 243.05-20.55 241.27-18.8 240.87-15.35L240.87-15.35 253.97-15.35 253.97-15.95Q253.97-18.8 252.25-20.55 250.52-22.3 247.67-22.3L247.67-22.3ZM275.22-26.05Q278.07-26.05 280.3-25.15 282.52-24.25 283.75-22.65 284.97-21.05 284.97-19.1L284.97-19.1 284.92-18.2 280.27-18.2 280.27-18.65Q280.27-22.3 274.62-22.3L274.62-22.3Q269.02-22.3 269.02-18.95L269.02-18.95Q269.02-17.4 270.62-16.68 272.22-15.95 275.52-15.3L275.52-15.3Q278.67-14.65 280.7-13.95 282.72-13.25 284.15-11.75 285.57-10.25 285.57-7.7L285.57-7.7Q285.57-3.6 282.77-1.55 279.97 0.5 274.72 0.5L274.72 0.5 273.97 0.5Q270.82 0.5 268.47-0.48 266.12-1.45 264.85-3.13 263.57-4.8 263.62-6.9L263.62-6.9 263.62-8 268.27-8 268.27-7.5Q268.27-3.25 275.42-3.25L275.42-3.25Q277.52-3.25 279.2-4.2 280.87-5.15 280.87-6.8L280.87-6.8Q280.87-8.2 279.95-9 279.02-9.8 277.67-10.2 276.32-10.6 273.92-11L273.92-11Q270.82-11.6 268.92-12.23 267.02-12.85 265.67-14.35 264.32-15.85 264.32-18.45L264.32-18.45Q264.32-22 267.12-24.03 269.92-26.05 274.77-26.05L274.77-26.05 275.22-26.05ZM316.42-26.05Q321.27-26.05 324.02-22.5 326.77-18.95 326.77-12.75L326.77-12.75 326.77-12.2Q326.77-6.3 324.04-2.9 321.32 0.5 316.42 0.5L316.42 0.5Q311.72 0.5 309.07-3.25L309.07-3.25 309.07 9.05 304.37 9.05 304.37-25.55 307.87-25.55Q308.22-23.95 308.52-22.05L308.52-22.05Q311.37-26.05 316.42-26.05L316.42-26.05ZM315.57-22.3Q312.17-22.3 310.59-19.95 309.02-17.6 309.02-12.8L309.02-12.8Q309.02-7.9 310.64-5.58 312.27-3.25 315.57-3.25L315.57-3.25Q318.87-3.25 320.47-5.6 322.07-7.95 322.07-12.8L322.07-12.8Q322.07-17.7 320.44-20 318.82-22.3 315.57-22.3L315.57-22.3ZM343.76-26.05Q346.91-26.05 349.34-24.73 351.76-23.4 353.11-20.95 354.46-18.5 354.46-15.25L354.46-15.25 354.46-11.7 336.61-11.7Q336.71-7.65 338.51-5.45 340.31-3.25 343.86-3.25L343.86-3.25Q347.01-3.25 348.51-5.1 350.01-6.95 350.01-9.5L350.01-9.5 354.46-9.5Q354.46-6.5 353.09-4.25 351.71-2 349.29-0.75 346.86 0.5 343.76 0.5L343.76 0.5 343.56 0.5Q338.16 0.5 335.04-2.98 331.91-6.45 331.91-12.25L331.91-12.25 331.91-13.25Q331.91-17.05 333.31-19.95 334.71-22.85 337.31-24.45 339.91-26.05 343.41-26.05L343.41-26.05 343.76-26.05ZM343.51-22.3Q340.66-22.3 338.89-20.55 337.11-18.8 336.71-15.35L336.71-15.35 349.81-15.35 349.81-15.95Q349.81-18.8 348.09-20.55 346.36-22.3 343.51-22.3L343.51-22.3ZM372.81-26.05Q376.36-26.05 378.36-23.78 380.36-21.5 380.36-18.05L380.36-18.05 380.21-16.15 376.06-16.15 376.06-17.25Q376.06-18.75 375.31-19.9 374.56-21.05 373.41-21.68 372.26-22.3 371.11-22.3L371.11-22.3Q368.71-22.3 367.36-20.4 366.01-18.5 366.01-15.25L366.01-15.25 366.01 0 361.31 0 361.31-25.55 364.66-25.55 365.36-21.75Q365.66-22.75 366.71-23.75 367.76-24.75 369.34-25.4 370.91-26.05 372.81-26.05L372.81-26.05ZM406.66-36L406.66 0 403.16 0Q402.81-1.6 402.51-3.5L402.51-3.5Q399.66 0.5 394.61 0.5L394.61 0.5Q389.81 0.5 387.03-3.05 384.26-6.6 384.26-12.8L384.26-12.8 384.26-13.35Q384.26-19.2 386.98-22.63 389.71-26.05 394.61-26.05L394.61-26.05Q399.36-26.05 401.96-22.3L401.96-22.3 401.96-36 406.66-36ZM395.46-22.3Q392.11-22.3 390.53-19.98 388.96-17.65 388.96-12.75L388.96-12.75Q388.96-7.85 390.56-5.55 392.16-3.25 395.46-3.25L395.46-3.25Q402.01-3.25 402.01-12.75L402.01-12.75Q402.01-17.65 400.36-19.98 398.71-22.3 395.46-22.3L395.46-22.3ZM436.31-25.55L436.31-5Q436.31-4.1 436.7-3.68 437.11-3.25 437.7-3.25L437.7-3.25Q438.81-3.25 439.95-3.95L439.95-3.95 439.95-0.5Q438.41 0.5 436.81 0.5L436.81 0.5Q434.11 0.5 433.03-0.6 431.95-1.7 431.86-3.7L431.86-3.7Q430.5-1.7 428.38-0.6 426.25 0.5 423.5 0.5L423.5 0.5Q419.66 0.5 417.18-1.78 414.7-4.05 414.7-8.35L414.7-8.35 414.7-25.55 419.41-25.55 419.41-9.2Q419.41-3.25 424.81-3.25L424.81-3.25Q426.56-3.25 428.13-4.2 429.7-5.15 430.66-6.78 431.61-8.4 431.61-10.35L431.61-10.35 431.61-25.55 436.31-25.55ZM445.15-5.55L450.2-5.55 450.2 0 445.15 0 445.15-5.55ZM457.1-5.55L462.15-5.55 462.15 0 457.1 0 457.1-5.55ZM469.05-5.55L474.1-5.55 474.1 0 469.05 0 469.05-5.55Z" opacity="1" transform="matrix(1,0,0,1,0,0)" fill="#ffffff" class="slogan-text-1" data-fill-palette-color="secondary" id="text-1"></path></svg></g></svg></g></svg></g></svg></g></svg></g></svg></g></svg></g><g><path d="M0 123.6c0-68.262 55.338-123.6 123.6-123.6 33.432 0 63.763 13.273 86.013 34.837h-6.944c-21.009-18.728-48.71-30.109-79.069-30.109-65.651 0-118.872 53.221-118.872 118.872 0 65.651 53.221 118.872 118.872 118.872 30.359 0 58.06-11.381 79.069-30.109l6.944 0c-22.249 21.564-52.581 34.837-86.013 34.837-68.262 0-123.6-55.338-123.6-123.6z" fill="#ffffff" stroke="transparent" data-fill-palette-color="tertiary"></path></g></svg></g><defs></defs></svg><rect width="395.52" height="247.2" fill="none" stroke="none" visibility="hidden"></rect></g></svg></g></svg>